<svg width="211" height="36" viewBox="0 0 211 36" fill="none" xmlns="http://www.w3.org/2000/svg">
<path d="M63.781 35.9312C65.2294 35.9576 66.6657 35.6629 67.9868 35.0685C69.1619 34.5321 70.2115 33.7553 71.068 32.7884C71.8939 31.8215 72.5314 30.7085 72.9475 29.5069C73.3926 28.2665 73.6168 26.9578 73.61 25.64C73.5965 24.4294 73.415 23.2265 73.0708 22.0658C72.7238 20.8601 72.1427 19.7346 71.3607 18.7535C70.5227 17.7319 69.4709 16.9063 68.2795 16.3348C66.9101 15.7439 65.4372 15.4302 63.9458 15.4117C62.4545 15.3931 60.9742 15.6702 59.5905 16.227C58.4157 16.7289 57.3642 17.4806 56.5093 18.43C55.6599 19.3822 55.0057 20.4919 54.5836 21.6961C54.1345 22.9833 53.9104 24.3383 53.9211 25.7016C53.9148 27.0847 54.1386 28.4592 54.5836 29.7688C54.9899 30.9757 55.6461 32.0833 56.5093 33.0195C57.3666 33.9547 58.4183 34.6909 59.5905 35.1763C60.9193 35.7177 62.3468 35.9749 63.781 35.9312ZM63.781 33.1273C62.9097 33.1498 62.0498 32.9255 61.3006 32.4803C60.5933 32.0582 59.9882 31.4847 59.5289 30.801C59.0271 30.0697 58.6569 29.2564 58.4351 28.3977C58.1883 27.4993 58.064 26.5717 58.0653 25.64C58.0609 24.6777 58.1852 23.7192 58.4351 22.7899C58.6538 21.9301 59.0242 21.1162 59.5289 20.3866C59.9854 19.7127 60.5918 19.1537 61.3006 18.7535C62.0611 18.341 62.916 18.134 63.781 18.1527C64.6165 18.1441 65.4416 18.3398 66.1843 18.7227C66.8825 19.1037 67.4917 19.6289 67.9714 20.2633C68.4883 20.9787 68.8695 21.7828 69.096 22.6358C69.3674 23.6035 69.5022 24.6043 69.4966 25.6092C69.5175 26.6915 69.356 27.7696 69.019 28.7982C68.7429 29.6488 68.3149 30.4422 67.7557 31.1399C67.2575 31.7443 66.6382 32.2376 65.9378 32.5881C65.2675 32.9211 64.5294 33.0951 63.781 33.0965M82.0678 35.5152V18.3992H82.6841H83.2079H83.7163H84.3479C84.8723 18.3856 85.3946 18.4692 85.8885 18.6457C86.327 18.7965 86.7343 19.0263 87.0902 19.3236C87.4205 19.6135 87.6924 19.9638 87.8913 20.3558C88.0959 20.7618 88.2015 21.2106 88.1994 21.6653C88.2016 22.0871 88.1231 22.5054 87.9683 22.8977C87.8342 23.2557 87.6416 23.5889 87.3983 23.8837C87.1536 24.1595 86.8614 24.3891 86.5356 24.5616C86.2059 24.7355 85.8441 24.8403 85.4726 24.8697C85.1752 24.9068 84.8904 25.0123 84.6406 25.1778C84.3925 25.3463 84.1739 25.5545 83.9936 25.7941C83.8007 26.0369 83.6353 26.3004 83.5006 26.5798L83.1308 27.3809C83.5723 27.5157 84.0267 27.6035 84.4866 27.6428C84.8865 27.6741 85.2883 27.6741 85.6882 27.6428C86.208 28.051 86.6205 28.5798 86.8899 29.1834C87.1926 29.8517 87.4449 30.5418 87.6448 31.2478C87.8605 31.9873 88.0762 32.7884 88.261 33.5433C88.441 34.3072 88.6991 35.0506 89.0313 35.7617H93.0369C92.6543 34.931 92.3401 34.0706 92.0971 33.1889C91.8814 32.3878 91.6503 31.6483 91.4193 30.801C91.2068 30.0829 90.939 29.3824 90.6181 28.7058C90.3103 28.0651 89.8752 27.4937 89.3395 27.0265C89.2444 26.9571 89.1409 26.9001 89.0313 26.8571L88.7386 26.7338L89.4935 26.4257C90.2969 25.9528 90.9736 25.292 91.4655 24.5C91.9268 23.6561 92.1737 22.7117 92.1845 21.75C92.1952 20.7883 91.9695 19.8386 91.5271 18.9846C91.1178 18.2342 90.5436 17.5863 89.8478 17.0897C89.1005 16.5461 88.2598 16.144 87.3675 15.9034C86.3665 15.6141 85.3282 15.4739 84.2863 15.4875H82.8998L81.5594 15.5799L80.0188 15.7648L78.0777 16.0883V35.5923L82.0678 35.5152ZM115.006 35.5152L107.965 23.6526L114.128 15.734H109.783L105.3 22.0658C104.954 22.5441 104.664 23.0611 104.437 23.6064C104.188 24.1601 103.997 24.7384 103.867 25.3319C103.728 25.9439 103.65 26.5684 103.636 27.196C103.622 27.8192 103.695 28.4414 103.852 29.0447L105.577 26.8417L105.901 26.2408L106.086 26.8879L110.553 35.6539L115.006 35.5152ZM102.311 15.811H98.4136V35.5923H102.311V15.811ZM123.248 35.5923V18.6457H131.259V15.811H119.396V35.5923H123.248ZM130.304 26.5798V23.8375H127.007C126.641 23.8303 126.279 23.9207 125.959 24.0994C125.665 24.2728 125.405 24.4972 125.189 24.7619C124.972 25.0386 124.786 25.3382 124.635 25.6554C124.496 25.9789 124.373 26.3025 124.28 26.5798H130.304ZM145.71 35.9774C147.158 36.0038 148.595 35.7092 149.916 35.1147C151.094 34.5835 152.145 33.806 152.997 32.8346C153.822 31.8644 154.464 30.7526 154.892 29.5531C155.324 28.31 155.543 27.0025 155.539 25.6862C155.515 24.4579 155.318 23.2391 154.953 22.0658C154.614 20.8571 154.032 19.73 153.243 18.7535C152.405 17.7319 151.354 16.9063 150.162 16.3348C148.745 15.6793 147.194 15.3628 145.633 15.4104C144.204 15.3874 142.787 15.6656 141.473 16.227C140.295 16.7235 139.243 17.4761 138.392 18.43C137.532 19.3775 136.872 20.4882 136.451 21.6961C136.002 22.9833 135.778 24.3383 135.788 25.7016C135.787 27.0856 136.016 28.4601 136.466 29.7688C136.878 30.9734 137.533 32.0801 138.392 33.0195C139.255 33.9482 140.305 34.6833 141.473 35.1763C142.799 35.7335 144.226 36.0065 145.664 35.9774M145.664 33.1735C144.798 33.1931 143.943 32.9689 143.199 32.5265C142.487 32.105 141.877 31.5316 141.412 30.8472C140.916 30.1124 140.546 29.3002 140.318 28.4439C140.071 27.5455 139.947 26.6179 139.948 25.6862C139.944 24.7239 140.068 23.7654 140.318 22.8361C140.543 21.9787 140.913 21.166 141.412 20.4328C141.874 19.7582 142.485 19.1994 143.199 18.7998C143.953 18.3851 144.803 18.1778 145.664 18.1989C146.499 18.1904 147.324 18.386 148.067 18.7689C148.771 19.1417 149.382 19.6682 149.854 20.3095C150.376 21.0239 150.763 21.8281 150.994 22.6821C151.26 23.6504 151.39 24.6512 151.379 25.6554C151.4 26.7377 151.239 27.8158 150.902 28.8444C150.626 29.695 150.198 30.4884 149.638 31.1861C149.144 31.7942 148.524 32.2882 147.82 32.6343C147.151 32.9689 146.412 33.143 145.664 33.1427M163.951 35.5614V18.3992H164.582H165.091H165.599H166.231C166.755 18.3863 167.277 18.4699 167.771 18.6457C168.205 18.7966 168.607 19.0265 168.957 19.3236C169.292 19.6093 169.565 19.9606 169.759 20.3558C169.963 20.7618 170.069 21.2106 170.067 21.6653C170.067 22.0855 169.994 22.5025 169.851 22.8977C169.712 23.2565 169.514 23.5897 169.266 23.8837C169.021 24.1595 168.729 24.3891 168.403 24.5616C168.073 24.7355 167.711 24.8403 167.34 24.8697C167.042 24.9068 166.758 25.0123 166.508 25.1778C166.26 25.3463 166.041 25.5545 165.861 25.7941C165.673 26.0407 165.508 26.3036 165.368 26.5798L164.998 27.3809C165.44 27.5157 165.894 27.6035 166.354 27.6428C166.754 27.6741 167.156 27.6741 167.556 27.6428C168.075 28.051 168.488 28.5798 168.757 29.1834C169.06 29.8517 169.312 30.5418 169.512 31.2478C169.743 31.9873 169.943 32.7884 170.128 33.5433C170.313 34.3077 170.577 35.0512 170.914 35.7617H174.904C174.522 34.931 174.207 34.0706 173.964 33.1889C173.749 32.3878 173.533 31.6483 173.287 30.801C173.074 30.0829 172.806 29.3824 172.485 28.7058C172.178 28.0651 171.743 27.4937 171.207 27.0265C171.115 26.9601 171.017 26.9033 170.914 26.8571L170.606 26.7338L171.376 26.4257C172.175 25.9523 172.847 25.2913 173.333 24.5C173.836 23.642 174.087 22.6595 174.057 21.6653C174.072 20.7712 173.865 19.8874 173.456 19.0925C173.047 18.342 172.473 17.6941 171.777 17.1975C171.031 16.6509 170.19 16.2485 169.296 16.0113C168.295 15.7219 167.257 15.5818 166.215 15.5953H164.829L163.488 15.6878L161.948 15.8726L160.022 16.1961V35.5923L163.951 35.5614ZM189.879 35.885C190.674 35.8772 191.465 35.7738 192.236 35.5768C193.078 35.3491 193.894 35.0341 194.67 34.6371L193.653 32.1567C192.48 32.7433 191.19 33.0592 189.879 33.0811C188.898 33.1084 187.925 32.8969 187.044 32.4648C186.267 32.0574 185.588 31.4841 185.057 30.7856C184.524 30.0675 184.128 29.2582 183.886 28.3977C183.352 26.6085 183.352 24.7023 183.886 22.9131C184.128 22.0574 184.525 21.2532 185.057 20.5406C185.592 19.8458 186.27 19.2733 187.044 18.8614C187.924 18.424 188.897 18.2072 189.879 18.2297C190.472 18.2282 191.065 18.2745 191.65 18.3684C192.338 18.4876 193.018 18.6523 193.684 18.8614L194.67 16.3502C193.863 16.0481 193.034 15.8112 192.19 15.6415C191.427 15.5025 190.654 15.4303 189.879 15.4258C188.372 15.4006 186.874 15.6728 185.473 16.227C184.207 16.7258 183.058 17.4811 182.099 18.4454C181.19 19.3748 180.482 20.4813 180.019 21.6961C179.533 22.97 179.288 24.3229 179.295 25.6862C179.284 27.0572 179.519 28.4189 179.988 29.7072C180.464 30.9226 181.182 32.0285 182.099 32.9578C183.033 33.9058 184.156 34.646 185.396 35.1301C186.831 35.6771 188.358 35.9438 189.894 35.9158M210.646 35.5923V32.85H202.234V18.6765H210.215V15.811H198.352V35.5923H210.646ZM209.29 26.5798V23.8375H205.978C205.612 23.8325 205.251 23.9227 204.93 24.0994C204.636 24.2728 204.376 24.4972 204.16 24.7619C203.943 25.0352 203.761 25.3356 203.621 25.6554C203.484 25.9559 203.365 26.2646 203.267 26.5798H209.29Z" fill="#FFF6ED"/>
<mask id="mask0_3267_200" style="mask-type:luminance" maskUnits="userSpaceOnUse" x="41" y="0" width="14" height="13">
<path d="M53.0118 0.000252903H42.2277C42.0502 -0.00367516 41.8748 0.0382124 41.7183 0.12187C41.5617 0.205528 41.4294 0.32813 41.3341 0.477838C41.2481 0.596793 41.1872 0.732067 41.1553 0.875371C41.1233 1.01867 41.121 1.16699 41.1484 1.31123C41.1758 1.45547 41.2324 1.59259 41.3146 1.7142C41.3969 1.8358 41.5031 1.93933 41.6268 2.01843L46.5876 5.37693C46.7352 5.47437 46.8563 5.60712 46.9396 5.76315C47.023 5.91918 47.0662 6.09356 47.0651 6.27048V11.0771C47.0694 11.2798 47.1291 11.4774 47.2377 11.6485C47.3463 11.8196 47.4998 11.9577 47.6814 12.0477C47.8088 12.1109 47.9474 12.1482 48.0892 12.1576C48.2311 12.167 48.3734 12.1483 48.508 12.1024C48.6426 12.0566 48.7668 11.9846 48.8735 11.8906C48.9801 11.7966 49.0672 11.6825 49.1295 11.5547L54.0748 1.57166V1.47923V1.20192V1.09408C54.0749 0.806626 53.9618 0.530717 53.7599 0.326022C53.5581 0.121328 53.2839 0.0043015 52.9964 0.000252903H53.0118Z" fill="white"/>
</mask>
<g mask="url(#mask0_3267_200)">
<path d="M34.6017 4.32936L45.5553 18.1793L60.4221 7.98057L49.4684 -5.86938L34.6017 4.32936Z" fill="url(#paint0_linear_3267_200)"/>
</g>
<mask id="mask1_3267_200" style="mask-type:luminance" maskUnits="userSpaceOnUse" x="0" y="0" width="23" height="36">
<path d="M9.36679 0.000326829L1.23244 0.0465447C1.07872 0.046066 0.926575 0.0775439 0.785665 0.138981C0.522333 0.259751 0.317667 0.480055 0.216579 0.751551C0.11549 1.02305 0.126235 1.32356 0.246456 1.58714L15.56 34.5405C15.6562 34.7737 15.8381 34.9612 16.0684 35.0643C16.1958 35.1275 16.3344 35.1648 16.4762 35.1742C16.6181 35.1836 16.7604 35.1648 16.895 35.119C17.0296 35.0732 17.1538 35.0012 17.2605 34.9072C17.3671 34.8132 17.4542 34.6991 17.5165 34.5713L22.0459 25.2353C22.1216 25.0875 22.1611 24.9238 22.1611 24.7577C22.1611 24.5916 22.1216 24.4279 22.0459 24.2801L10.3374 0.601159C10.2495 0.419076 10.1115 0.265835 9.93956 0.159414C9.76765 0.0529927 9.56895 -0.00219452 9.36679 0.000326829Z" fill="white"/>
</mask>
<g mask="url(#mask1_3267_200)">
<path d="M22.1999 0.000244141H-6.10352e-05V35.3261H22.1999V0.000244141Z" fill="#FFF6ED"/>
</g>
<mask id="mask2_3267_200" style="mask-type:luminance" maskUnits="userSpaceOnUse" x="20" y="0" width="23" height="36">
<path d="M29.7181 0.000285703L21.5684 0.0465035C21.4147 0.0460248 21.2625 0.0775028 21.1216 0.13894C20.9912 0.198528 20.874 0.28353 20.7768 0.388973C20.6796 0.494416 20.6044 0.618182 20.5556 0.75303C20.5069 0.887878 20.4855 1.0311 20.4927 1.17431C20.5 1.31753 20.5357 1.45786 20.5978 1.5871L35.8959 34.5404C35.9971 34.7703 36.1776 34.9562 36.4043 35.0642C36.5317 35.1274 36.6703 35.1648 36.8122 35.1742C36.954 35.1835 37.0964 35.1648 37.231 35.119C37.3655 35.0732 37.4898 35.0012 37.5964 34.9072C37.7031 34.8132 37.7901 34.699 37.8525 34.5713L42.4743 25.2352C42.5465 25.0864 42.5841 24.9231 42.5841 24.7577C42.5841 24.5922 42.5465 24.4289 42.4743 24.2801L30.7041 0.601118C30.6122 0.418975 30.4711 0.266182 30.2969 0.160007C30.1226 0.053832 29.9222 -0.00149268 29.7181 0.000285703Z" fill="white"/>
</mask>
<g mask="url(#mask2_3267_200)">
<path d="M42.5513 0.000244141H20.3513V35.3261H42.5513V0.000244141Z" fill="#FFF6ED"/>
</g>
<path d="M68.0327 8.05758V1.00165H70.3282V0.185134H64.705V0.970838H67.0005V8.05758H68.0327ZM82.0521 8.05758V0.185134H81.0199V3.57444H78.4317C78.3219 3.56432 78.2112 3.57839 78.1074 3.61565C78.0036 3.65291 77.9092 3.71247 77.8309 3.79013C77.6871 3.94571 77.577 4.12927 77.5074 4.32934H81.0199V8.05758H82.0521ZM77.0914 8.05758V0.185134H76.0746V8.05758H77.0914ZM93.2214 8.05758V7.27188H89.6164V1.00165H93.052V0.185134H88.5997V8.05758H93.2214ZM92.6822 4.32934V3.57444H90.9568C90.8469 3.56432 90.7362 3.57839 90.6324 3.61565C90.5286 3.65291 90.4343 3.71247 90.3559 3.79013C90.2122 3.94571 90.102 4.12927 90.0324 4.32934H92.6822ZM107.919 8.05758V0.92462C108.304 0.92462 108.704 0.92462 109.105 0.92462C109.336 0.926848 109.566 0.968529 109.783 1.04787C109.987 1.11831 110.176 1.22824 110.337 1.37139C110.487 1.51982 110.612 1.6915 110.707 1.87979C110.803 2.07698 110.855 2.29232 110.861 2.51143C110.86 2.73108 110.807 2.94731 110.707 3.14308C110.627 3.33157 110.506 3.49993 110.353 3.63607C110.062 3.90467 109.686 4.06275 109.29 4.08284C109.079 4.07597 108.873 4.14119 108.704 4.26771C108.549 4.39516 108.427 4.55925 108.35 4.7453C108.536 4.79728 108.727 4.82828 108.92 4.83773H109.413C109.735 4.81342 110.052 4.74071 110.353 4.62205C110.65 4.51749 110.927 4.361 111.169 4.15987C111.404 3.96374 111.598 3.72285 111.739 3.4512C111.878 3.1631 111.946 2.84642 111.94 2.52684C111.943 2.20759 111.875 1.89165 111.739 1.60248C111.605 1.31758 111.411 1.06526 111.169 0.862996C110.908 0.631966 110.605 0.454044 110.276 0.339193C109.903 0.186824 109.507 0.0982879 109.105 0.077292C108.704 0.077292 108.335 0.077292 107.996 0.077292C107.657 0.077292 107.287 0.169728 106.887 0.246757V7.94974L107.919 8.05758ZM119.134 8.05758V0.955432C119.342 0.907401 119.553 0.876485 119.766 0.862996H120.321C120.552 0.865224 120.781 0.906905 120.998 0.986244C121.203 1.05669 121.391 1.16662 121.553 1.30977C121.707 1.44301 121.832 1.60532 121.923 1.78735C122.027 1.97014 122.08 2.1777 122.077 2.38819C122.081 2.60361 122.028 2.81627 121.923 3.00442C121.837 3.18512 121.716 3.34734 121.568 3.48201C121.419 3.61809 121.247 3.72752 121.06 3.80553C120.885 3.88283 120.697 3.92472 120.505 3.92878C120.294 3.93411 120.09 4.00401 119.92 4.12906C119.761 4.24713 119.638 4.4072 119.566 4.59124L120.136 4.68367H120.736C121.009 4.78185 121.238 4.97274 121.384 5.22288C121.545 5.49446 121.674 5.784 121.769 6.08562C121.877 6.40914 121.969 6.74807 122.046 7.087C122.124 7.43164 122.238 7.76724 122.385 8.08839H123.463C123.303 7.74095 123.175 7.38008 123.078 7.00997L122.801 6.02399C122.707 5.72705 122.588 5.43847 122.447 5.16126C122.296 4.89498 122.085 4.668 121.83 4.4988H121.615L121.877 4.40637C122.24 4.22435 122.556 3.9607 122.801 3.63607C123.037 3.30318 123.161 2.90398 123.155 2.49603C123.185 2.15169 123.121 1.8058 122.97 1.49464C122.836 1.20974 122.642 0.957418 122.4 0.755154C122.121 0.497834 121.79 0.303442 121.43 0.185134C121.053 0.0579159 120.657 -0.00458984 120.259 0.000262264C119.888 0.000752372 119.517 0.0264883 119.15 0.077292C118.811 0.077292 118.441 0.169728 118.04 0.246757V7.94974L119.134 8.05758ZM132.892 8.19623C133.375 8.18854 133.852 8.08376 134.294 7.88811C134.73 7.69713 135.123 7.41932 135.449 7.0716C135.79 6.69913 136.057 6.26516 136.235 5.7929C136.438 5.25131 136.537 4.67647 136.528 4.09825C136.528 3.57607 136.45 3.05679 136.297 2.55765C136.141 2.08655 135.901 1.64791 135.588 1.26355C135.275 0.892259 134.887 0.592734 134.448 0.385411C133.965 0.163919 133.438 0.053373 132.907 0.061886C132.469 0.0629014 132.035 0.146529 131.629 0.308381C131.194 0.474831 130.8 0.732208 130.473 1.06327C130.102 1.4205 129.808 1.85057 129.61 2.32656C129.383 2.8998 129.273 3.51266 129.287 4.12906C129.276 4.7111 129.37 5.29035 129.564 5.83912C129.735 6.31497 130.003 6.75032 130.35 7.11782C130.668 7.46375 131.057 7.737 131.49 7.91893C131.939 8.10402 132.421 8.19827 132.907 8.19623M132.907 7.42594C132.558 7.43049 132.213 7.34564 131.906 7.17944C131.589 7.01981 131.315 6.78754 131.105 6.50158C130.861 6.19491 130.678 5.84459 130.565 5.46938C130.438 5.03409 130.376 4.58248 130.381 4.12906C130.371 3.66913 130.439 3.21086 130.581 2.77333C130.693 2.39615 130.87 2.04156 131.105 1.72573C131.324 1.44699 131.603 1.22068 131.921 1.06327C132.228 0.921182 132.562 0.847576 132.899 0.847576C133.237 0.847576 133.571 0.921182 133.878 1.06327C134.194 1.21703 134.469 1.44417 134.679 1.72573C134.924 2.03947 135.112 2.39414 135.233 2.77333C135.367 3.21278 135.435 3.66971 135.434 4.12906C135.452 4.56493 135.406 5.00112 135.295 5.42316C135.185 5.79832 135.014 6.15243 134.787 6.47077C134.569 6.75372 134.297 6.98958 133.986 7.16403C133.664 7.33875 133.304 7.42888 132.938 7.42594M142.382 10.2914C142.752 10.0449 143.091 9.79845 143.399 9.56736C143.68 9.34749 143.934 9.09397 144.154 8.81247C144.331 8.52742 144.462 8.21517 144.539 7.88811C144.657 7.49356 144.715 7.08303 144.708 6.67104V0.185134H143.676V6.67104C143.686 7.03047 143.639 7.38921 143.537 7.73405C143.455 8.00847 143.33 8.26836 143.168 8.50435C142.997 8.73177 142.801 8.93857 142.582 9.12059L141.843 9.73683L142.382 10.2914ZM155.939 8.05758V7.27188H152.242V1.00165H155.677V0.185134H151.209V8.05758H155.939ZM155.323 4.32934V3.57444H153.644C153.534 3.56432 153.423 3.57839 153.319 3.61565C153.215 3.65291 153.121 3.71247 153.043 3.79013C152.9 3.94946 152.786 4.13177 152.704 4.32934H155.323ZM165.814 8.18083C166.131 8.18212 166.446 8.14592 166.754 8.07299C167.093 7.98652 167.419 7.85708 167.725 7.68784L167.447 6.97916C167.178 7.11936 166.894 7.22792 166.6 7.30269C166.344 7.37527 166.08 7.41158 165.814 7.41053C165.447 7.41111 165.085 7.33227 164.751 7.17944C164.413 7.01876 164.11 6.79375 163.858 6.51698C163.591 6.2138 163.382 5.86386 163.242 5.48478C163.083 5.05605 163.004 4.60166 163.01 4.14447C163.002 3.65696 163.08 3.17183 163.242 2.71171C163.375 2.32928 163.584 1.97803 163.858 1.67951C164.111 1.4163 164.415 1.20673 164.751 1.06327C165.091 0.934352 165.451 0.866548 165.814 0.862996C166.071 0.847735 166.328 0.847735 166.585 0.862996C166.876 0.920299 167.164 0.992286 167.447 1.07868L167.725 0.385411C167.41 0.264684 167.085 0.171891 166.754 0.108104C166.444 0.0475719 166.13 0.0166208 165.814 0.0156682C165.286 0.00828825 164.762 0.107858 164.274 0.308381C163.81 0.505418 163.391 0.793563 163.041 1.15571C162.681 1.52168 162.398 1.95658 162.209 2.4344C162.012 2.96148 161.913 3.52013 161.917 4.08284C161.913 4.66059 162.012 5.23437 162.209 5.7775C162.398 6.25061 162.681 6.68041 163.041 7.04079C163.397 7.38417 163.815 7.65612 164.274 7.8419C164.765 8.02993 165.288 8.12399 165.814 8.1192M176.244 7.99596V1.00165H178.54V0.185134H172.932V0.970838H175.212V8.05758L176.244 7.99596ZM194.87 8.13461C195.351 8.13665 195.828 8.04237 196.272 7.8573C196.708 7.66632 197.102 7.38851 197.427 7.04079C197.774 6.67248 198.041 6.23736 198.213 5.76209C198.416 5.22049 198.515 4.64566 198.506 4.06744C198.506 3.54526 198.428 3.02598 198.275 2.52684C198.12 2.05574 197.879 1.6171 197.566 1.23274C197.257 0.858151 196.867 0.558014 196.426 0.354599C195.943 0.133107 195.417 0.0225611 194.885 0.0310742C193.976 0.0399575 193.104 0.398516 192.451 1.03246C192.08 1.38969 191.786 1.81976 191.588 2.29575C191.362 2.86899 191.252 3.48185 191.265 4.09825C191.254 4.68029 191.348 5.25954 191.542 5.80831C191.713 6.28416 191.981 6.7195 192.328 7.087C192.646 7.43294 193.035 7.70619 193.468 7.88811C193.918 8.07321 194.399 8.16746 194.885 8.16542M194.885 7.39512C194.536 7.39968 194.191 7.31483 193.884 7.14863C193.567 6.989 193.293 6.75672 193.083 6.47077C192.839 6.1641 192.656 5.81378 192.544 5.43857C192.417 5.00328 192.354 4.55167 192.359 4.09825C192.349 3.63832 192.417 3.18005 192.559 2.74252C192.676 2.36428 192.858 2.00962 193.098 1.69492C193.318 1.41618 193.597 1.18987 193.915 1.03246C194.221 0.89037 194.555 0.816764 194.893 0.816764C195.231 0.816764 195.565 0.89037 195.871 1.03246C196.189 1.18987 196.468 1.41618 196.688 1.69492C196.922 2.01319 197.104 2.36685 197.227 2.74252C197.361 3.18197 197.428 3.6389 197.427 4.09825C197.431 4.53644 197.369 4.97267 197.242 5.39235C197.133 5.76751 196.961 6.12162 196.734 6.43995C196.517 6.72291 196.244 6.95877 195.933 7.13322C195.612 7.30794 195.251 7.39807 194.885 7.39512ZM205.947 8.02677V1.41761L206.163 1.72573L210.091 7.99596H211V0.185134H210.106V6.65564L209.937 6.34752L206.163 0.185134H205.13V8.05758L205.947 8.02677Z" fill="#FFF6ED"/>
<defs>
<linearGradient id="paint0_linear_3267_200" x1="47.5119" y1="-5.86938" x2="47.5119" y2="18.1793" gradientUnits="userSpaceOnUse">
<stop stop-color="#5D77BA"/>
<stop offset="1" stop-color="#234088"/>
</linearGradient>
</defs>
</svg>
