<svg width="211" height="36" viewBox="0 0 211 36" fill="none" xmlns="http://www.w3.org/2000/svg">
<path d="M62.4825 34.5413C64.0786 34.5413 65.4958 34.253 66.7342 33.6763C67.9725 33.0997 69.0091 32.3308 69.8438 31.3697C70.6786 30.4086 71.3161 29.3056 71.7564 28.0607C72.1967 26.8159 72.4169 25.5161 72.4169 24.1614C72.4169 22.9532 72.238 21.7312 71.8803 20.4955C71.5225 19.2598 70.9446 18.143 70.1466 17.1454C69.3485 16.1477 68.3211 15.3376 67.0644 14.7151C65.8077 14.0927 64.2803 13.7815 62.4825 13.7815C60.9047 13.7815 59.5012 14.0515 58.272 14.5916C57.0428 15.1317 56.0017 15.8731 55.1486 16.8158C54.2955 17.7586 53.6442 18.8616 53.1947 20.1248C52.7453 21.3879 52.5205 22.7335 52.5205 24.1614C52.5205 25.6442 52.7407 27.0172 53.181 28.2804C53.6213 29.5436 54.268 30.6374 55.1211 31.5619C55.9742 32.4864 57.0153 33.2141 58.2445 33.745C59.4737 34.2758 60.8863 34.5413 62.4825 34.5413ZM62.4825 31.7129C61.5284 31.7129 60.6937 31.4979 59.9782 31.0676C59.2627 30.6374 58.6619 30.0699 58.1757 29.3651C57.6895 28.6602 57.3226 27.8548 57.0749 26.9486C56.8273 26.0424 56.7034 25.1134 56.7034 24.1614C56.7034 23.1545 56.8273 22.1934 57.0749 21.2781C57.3226 20.3628 57.6895 19.5572 58.1757 18.8616C58.6619 18.166 59.2627 17.6168 59.9782 17.214C60.6937 16.8112 61.5284 16.6099 62.4825 16.6099C63.3815 16.6099 64.1886 16.8021 64.9041 17.1865C65.6196 17.571 66.2251 18.0973 66.7204 18.7655C67.2158 19.4337 67.5964 20.23 67.8625 21.1545C68.1285 22.079 68.2615 23.0813 68.2615 24.1614C68.2615 25.3696 68.101 26.4406 67.7799 27.3742C67.4588 28.3079 67.0323 29.0951 66.5003 29.7358C65.9683 30.3765 65.3536 30.8663 64.6565 31.2049C63.9594 31.5435 63.2346 31.7129 62.4825 31.7129ZM80.971 34.1569V16.8021C81.1827 16.7867 81.3938 16.7638 81.6039 16.7335C81.7772 16.707 81.9517 16.6887 82.1268 16.6785C82.2919 16.6694 82.4616 16.6602 82.6359 16.6511C82.8102 16.642 83.0258 16.6373 83.2826 16.6373C83.8147 16.6373 84.3145 16.7197 84.7824 16.8845C85.2502 17.0492 85.6538 17.278 85.9932 17.571C86.3307 17.8614 86.6067 18.2162 86.805 18.6145C87.0069 19.0173 87.1077 19.4566 87.1077 19.9326C87.1077 20.3719 87.0344 20.7838 86.8876 21.1683C86.7408 21.5527 86.5436 21.8868 86.2959 22.1705C86.0522 22.4511 85.7583 22.684 85.4291 22.857C85.0988 23.0309 84.7411 23.1363 84.3558 23.1728C84.044 23.2094 83.7642 23.3101 83.5165 23.4749C83.2688 23.6397 83.0487 23.8456 82.856 24.0928C82.6633 24.3401 82.4972 24.607 82.3607 24.8891C82.2307 25.1563 82.1068 25.4264 81.9892 25.6992C82.4662 25.8456 82.9203 25.9326 83.3514 25.96C83.7825 25.9875 84.1907 25.9829 84.576 25.9463C85.0897 26.3491 85.4933 26.8708 85.7868 27.5115C86.0804 28.1522 86.3372 28.848 86.5574 29.5985C86.7775 30.349 86.9839 31.1225 87.1765 31.9189C87.3692 32.7152 87.6306 33.4612 87.9608 34.1569H92.0061C91.6026 33.2781 91.2861 32.4132 91.0567 31.5619C90.8395 30.753 90.6101 29.9474 90.3688 29.1454C90.1395 28.3856 89.8689 27.6809 89.5569 27.031C89.2451 26.3811 88.8139 25.8181 88.2635 25.3422C88.1902 25.2873 88.0893 25.2323 87.9608 25.1774C87.8587 25.1345 87.7577 25.0887 87.6581 25.0401L88.4287 24.7381C89.2542 24.2438 89.9147 23.5939 90.41 22.7884C90.9054 21.9829 91.1531 21.031 91.1531 19.9326C91.1531 18.9623 90.9467 18.0973 90.5339 17.3376C90.1211 16.5778 89.5569 15.9371 88.8414 15.4154C88.1259 14.8936 87.2912 14.4955 86.3372 14.2209C85.3833 13.9463 84.3651 13.809 83.2826 13.809C82.7872 13.809 82.3194 13.8181 81.8791 13.8364C81.4388 13.8548 80.9847 13.8867 80.5169 13.9325C80.0491 13.9783 79.5308 14.0424 78.9621 14.1247C78.3934 14.2071 77.7421 14.3124 77.0082 14.4405V34.1569H80.971ZM114.292 34.1569L107.165 22.1843L113.329 14.1934H109.009L104.468 20.5092C104.138 20.9486 103.849 21.4429 103.601 21.9921C103.354 22.5413 103.161 23.1225 103.023 23.7358C102.885 24.3538 102.807 24.9837 102.789 25.6168C102.771 26.2575 102.844 26.8799 103.01 27.4841L104.743 25.2598L105.073 24.6557L105.266 25.3147L109.779 34.1569H114.292ZM101.441 34.1569V14.1934H97.5056V34.1569H101.441ZM122.626 34.1569V17.0218H130.689V14.1934H118.691V34.1569H122.626ZM129.754 25.0676V22.2941H126.424C126.02 22.2941 125.667 22.3811 125.364 22.555C125.063 22.7279 124.797 22.9562 124.58 23.2278C124.36 23.5024 124.177 23.8044 124.03 24.1339C123.883 24.4635 123.764 24.7746 123.672 25.0676H129.754ZM145.298 34.5413C146.894 34.5413 148.311 34.253 149.549 33.6763C150.788 33.0997 151.824 32.3308 152.659 31.3697C153.494 30.4086 154.131 29.3056 154.572 28.0607C155.012 26.8159 155.232 25.5161 155.232 24.1614C155.232 22.9532 155.053 21.7312 154.696 20.4955C154.338 19.2598 153.76 18.143 152.962 17.1454C152.164 16.1477 151.136 15.3376 149.88 14.7151C148.623 14.0927 147.096 13.7815 145.298 13.7815C143.72 13.7815 142.317 14.0515 141.087 14.5916C139.858 15.1317 138.817 15.8731 137.964 16.8158C137.111 17.7586 136.46 18.8616 136.01 20.1248C135.561 21.3879 135.336 22.7335 135.336 24.1614C135.336 25.6442 135.556 27.0172 135.996 28.2804C136.437 29.5436 137.083 30.6374 137.936 31.5619C138.789 32.4864 139.831 33.2141 141.06 33.745C142.289 34.2758 143.702 34.5413 145.298 34.5413ZM145.298 31.7129C144.344 31.7129 143.509 31.4979 142.793 31.0676C142.078 30.6374 141.477 30.0699 140.991 29.3651C140.505 28.6602 140.138 27.8548 139.89 26.9486C139.643 26.0424 139.519 25.1134 139.519 24.1614C139.519 23.1545 139.643 22.1934 139.89 21.2781C140.138 20.3628 140.505 19.5572 140.991 18.8616C141.477 18.166 142.078 17.6168 142.793 17.214C143.509 16.8112 144.344 16.6099 145.298 16.6099C146.197 16.6099 147.004 16.8021 147.719 17.1865C148.435 17.571 149.04 18.0973 149.536 18.7655C150.031 19.4337 150.412 20.23 150.678 21.1545C150.944 22.079 151.077 23.0813 151.077 24.1614C151.077 25.3696 150.916 26.4406 150.595 27.3742C150.274 28.3079 149.848 29.0951 149.316 29.7358C148.784 30.3765 148.169 30.8663 147.472 31.2049C146.775 31.5435 146.05 31.7129 145.298 31.7129ZM163.786 34.1569V16.8021C163.998 16.7867 164.209 16.7638 164.419 16.7335C164.593 16.707 164.767 16.6887 164.942 16.6785C165.107 16.6694 165.277 16.6602 165.451 16.6511C165.625 16.642 165.841 16.6373 166.098 16.6373C166.63 16.6373 167.13 16.7197 167.598 16.8845C168.066 17.0492 168.469 17.278 168.809 17.571C169.146 17.8614 169.422 18.2162 169.62 18.6145C169.822 19.0173 169.923 19.4566 169.923 19.9326C169.923 20.3719 169.85 20.7838 169.703 21.1683C169.556 21.5527 169.359 21.8868 169.111 22.1705C168.868 22.4511 168.574 22.684 168.244 22.857C167.914 23.0309 167.556 23.1363 167.171 23.1728C166.859 23.2094 166.58 23.3101 166.332 23.4749C166.084 23.6397 165.864 23.8456 165.671 24.0928C165.479 24.3401 165.313 24.607 165.176 24.8891C165.046 25.1563 164.922 25.4264 164.805 25.6992C165.282 25.8456 165.736 25.9326 166.167 25.96C166.598 25.9875 167.006 25.9829 167.391 25.9463C167.905 26.3491 168.309 26.8708 168.602 27.5115C168.896 28.1522 169.153 28.848 169.373 29.5985C169.593 30.349 169.799 31.1225 169.992 31.9189C170.185 32.7152 170.446 33.4612 170.776 34.1569H174.822C174.418 33.2781 174.101 32.4132 173.872 31.5619C173.655 30.753 173.426 29.9474 173.184 29.1454C172.955 28.3856 172.684 27.6809 172.372 27.031C172.06 26.3811 171.629 25.8181 171.079 25.3422C171.006 25.2873 170.905 25.2323 170.776 25.1774C170.674 25.1345 170.573 25.0887 170.473 25.0401L171.244 24.7381C172.07 24.2438 172.73 23.5939 173.225 22.7884C173.721 21.9829 173.968 21.031 173.968 19.9326C173.968 18.9623 173.762 18.0973 173.349 17.3376C172.936 16.5778 172.372 15.9371 171.657 15.4154C170.941 14.8936 170.107 14.4955 169.153 14.2209C168.199 13.9463 167.18 13.809 166.098 13.809C165.603 13.809 165.135 13.8181 164.694 13.8364C164.254 13.8548 163.8 13.8867 163.332 13.9325C162.864 13.9783 162.346 14.0424 161.777 14.1247C161.209 14.2071 160.557 14.3124 159.824 14.4405V34.1569H163.786ZM190.008 34.4864C190.778 34.4864 191.572 34.3812 192.388 34.1706C193.205 33.96 194.026 33.6442 194.851 33.2232L193.833 30.7244C192.512 31.3468 191.237 31.658 190.008 31.658C188.907 31.658 187.953 31.4474 187.146 31.0264C186.339 30.6054 185.669 30.0425 185.137 29.3376C184.605 28.6328 184.206 27.8319 183.94 26.9349C183.674 26.0378 183.541 25.1134 183.541 24.1614C183.541 23.2094 183.674 22.285 183.94 21.3879C184.206 20.4909 184.605 19.6945 185.137 18.9989C185.669 18.3033 186.339 17.7404 187.146 17.3101C187.953 16.8799 188.907 16.6648 190.008 16.6648C190.632 16.6648 191.228 16.7106 191.796 16.8021C192.365 16.8936 193.053 17.0584 193.86 17.2964L194.851 14.7701C193.97 14.4405 193.136 14.2025 192.347 14.0561C191.558 13.9097 190.778 13.8364 190.008 13.8364C188.357 13.8364 186.871 14.1064 185.55 14.6465C184.229 15.1866 183.11 15.9234 182.192 16.857C181.275 17.7907 180.573 18.8845 180.087 20.1385C179.601 21.3925 179.358 22.7335 179.358 24.1614C179.358 25.6077 179.592 26.9577 180.06 28.2118C180.527 29.4658 181.215 30.5596 182.123 31.4932C183.032 32.4269 184.146 33.1592 185.467 33.69C186.788 34.2209 188.302 34.4864 190.008 34.4864ZM211 34.1569V31.3285H202.497V17.0218H210.56V14.1934H198.562V34.1569H211ZM209.625 25.0676V22.2941H206.295C205.891 22.2941 205.538 22.3811 205.235 22.555C204.934 22.7279 204.668 22.9562 204.451 23.2278C204.231 23.5024 204.047 23.8044 203.901 24.1339C203.754 24.4635 203.635 24.7746 203.543 25.0676H209.625Z" fill="black"/>
<path fill-rule="evenodd" clip-rule="evenodd" d="M42.4731 0.0395978L53.4647 0.00269151C54.0727 0.000714383 54.5671 0.490822 54.5692 1.09747C54.5698 1.26767 54.5307 1.43568 54.4551 1.58824L49.4611 11.6593C49.1914 12.203 48.5312 12.4256 47.9863 12.1565C47.8024 12.0657 47.6476 11.9254 47.5394 11.7515C47.4311 11.5775 47.3738 11.3769 47.3737 11.1721V6.34696C47.3737 6.16725 47.3295 5.99028 47.245 5.83158C47.1605 5.67288 47.0383 5.53729 46.8891 5.43671L41.8608 2.04836C41.3569 1.70884 41.2244 1.02607 41.5647 0.523335C41.6651 0.374932 41.8004 0.253287 41.9587 0.168993C42.1171 0.0847003 42.2937 0.0403164 42.4731 0.0397077V0.0395978Z" fill="url(#paint0_linear_3316_281)"/>
<path fill-rule="evenodd" clip-rule="evenodd" d="M1.09537 0.0427428L9.31524 1.49764e-05C9.5215 -0.00105963 9.72392 0.0557158 9.89941 0.163869C10.0749 0.272022 10.2164 0.427201 10.3078 0.611715L22.1473 24.5024C22.2218 24.6527 22.2609 24.818 22.2614 24.9857C22.262 25.1533 22.2241 25.3189 22.1506 25.4697L17.5655 34.8791C17.2997 35.4247 16.6408 35.652 16.0942 35.3866C15.8665 35.2761 15.6839 35.0906 15.5772 34.8615L0.102583 1.60357C-0.153346 1.05338 0.0860714 0.400273 0.637556 0.144894C0.781031 0.0784148 0.937179 0.0435732 1.09537 0.0427428Z" fill="url(#paint1_linear_3316_281)"/>
<path fill-rule="evenodd" clip-rule="evenodd" d="M21.6793 0.0426333L29.8992 1.52606e-05C30.1055 -0.00106943 30.3079 0.0556896 30.4834 0.163823C30.6589 0.271956 30.8004 0.427112 30.8918 0.611606L42.7313 24.5023C42.8058 24.6526 42.8448 24.8179 42.8454 24.9856C42.846 25.1532 42.8081 25.3188 42.7346 25.4696L38.1495 34.879C37.8836 35.4246 37.2248 35.6519 36.6782 35.3865C36.4504 35.276 36.2678 35.0905 36.1612 34.8613L20.6866 1.60346C20.4306 1.05327 20.6701 0.400163 21.2215 0.144785C21.365 0.0783052 21.5212 0.0434636 21.6793 0.0426333Z" fill="url(#paint2_linear_3316_281)"/>
<path d="M65.8096 8.23466V1.11207H68.1308V0.329129H62.4531V1.11207H64.7634V8.23466H65.8096ZM79.9858 8.23466V0.329129H78.9506V3.711H76.3242C76.07 3.711 75.872 3.78536 75.7304 3.93398C75.5887 4.08248 75.4779 4.26196 75.3979 4.47219H78.9506V8.23466H79.9858ZM74.9839 8.23466V0.329129H73.9486V8.23466H74.9838H74.9839ZM91.2852 8.23466V7.45172H87.6453V1.11207H91.1216V0.329129H86.61V8.23466H91.2852ZM90.7511 4.47219V3.711H88.9966C88.7351 3.711 88.5335 3.78536 88.3918 3.93398C88.2502 4.08248 88.1393 4.26196 88.0594 4.47219H90.7511ZM106.146 8.23466V1.04682C106.545 1.00301 106.945 0.981232 107.345 0.98158C107.592 0.98158 107.823 1.02145 108.037 1.1012C108.251 1.18094 108.438 1.29331 108.598 1.4383C108.757 1.58237 108.887 1.75595 108.98 1.94938C109.074 2.14512 109.121 2.35535 109.121 2.58009C109.121 2.81207 109.074 3.02417 108.98 3.21617C108.889 3.4033 108.765 3.57271 108.615 3.71638C108.467 3.85673 108.296 3.96914 108.108 4.0481C107.919 4.12785 107.73 4.16772 107.541 4.16772C107.309 4.16772 107.111 4.2312 106.947 4.35807C106.787 4.48143 106.661 4.64443 106.582 4.83104C106.786 4.88904 106.978 4.92166 107.16 4.92891C107.341 4.93616 107.512 4.93253 107.672 4.91804C107.997 4.88958 108.316 4.81639 108.62 4.70055C108.925 4.58456 109.198 4.42683 109.437 4.22758C109.675 4.03138 109.869 3.78901 110.01 3.51527C110.151 3.23979 110.222 2.92806 110.222 2.58009C110.222 2.25386 110.155 1.94576 110.02 1.65578C109.886 1.3658 109.694 1.11207 109.443 0.894586C109.192 0.677102 108.889 0.504983 108.533 0.378007C108.177 0.251252 107.781 0.187764 107.345 0.187764C106.946 0.187764 106.575 0.204021 106.234 0.236643C105.892 0.269266 105.518 0.325504 105.111 0.405248V8.21291L106.146 8.23466ZM117.489 8.23466V1.06857C117.751 1.01783 117.965 0.988829 118.132 0.98158C118.299 0.97433 118.485 0.970706 118.688 0.970706C118.935 0.970706 119.166 1.01058 119.38 1.09032C119.594 1.17007 119.781 1.27881 119.941 1.41655C120.099 1.55143 120.228 1.7158 120.323 1.90039C120.417 2.08536 120.464 2.28648 120.464 2.50397C120.464 2.7287 120.417 2.93531 120.323 3.12379C120.228 3.31228 120.106 3.47353 119.958 3.60775C119.808 3.7423 119.637 3.85073 119.451 3.92848C119.262 4.00823 119.073 4.05173 118.884 4.05897C118.652 4.06622 118.454 4.13147 118.29 4.25471C118.129 4.37525 118.003 4.53671 117.925 4.7223C118.129 4.77305 118.321 4.80391 118.503 4.81479C118.684 4.82566 118.855 4.82379 119.015 4.80929C119.059 4.80929 119.091 4.80567 119.113 4.79842C119.396 4.90716 119.616 5.0884 119.772 5.34213C119.929 5.59586 120.057 5.88584 120.159 6.21206C120.264 6.5494 120.357 6.89034 120.437 7.23424C120.521 7.58946 120.635 7.92294 120.78 8.23466H121.87C121.703 7.86494 121.574 7.50423 121.483 7.15274C121.397 6.81698 121.302 6.48337 121.2 6.1522C121.102 5.83696 120.982 5.54874 120.84 5.28776C120.699 5.02678 120.493 4.80567 120.225 4.62443L120.007 4.53744L120.268 4.45045C120.646 4.26196 120.957 4.00274 121.2 3.67289C121.443 3.34315 121.565 2.96068 121.565 2.52571V2.50397C121.565 2.19224 121.498 1.89501 121.363 1.61228C121.229 1.32955 121.036 1.0812 120.786 0.867346C120.535 0.653487 120.232 0.484992 119.876 0.361751C119.52 0.23851 119.124 0.17689 118.688 0.17689C118.288 0.17689 117.918 0.198638 117.576 0.242135C117.235 0.285632 116.861 0.347252 116.454 0.426996V8.23466H117.489ZM131.415 8.3869C131.909 8.3869 132.378 8.2909 132.821 8.09879C133.264 7.90657 133.654 7.63109 133.992 7.27224C134.33 6.9135 134.597 6.48205 134.793 5.97832C134.989 5.47449 135.087 4.90716 135.087 4.27646C135.087 3.71825 135.007 3.18904 134.848 2.68883C134.688 2.18861 134.452 1.75189 134.139 1.37843C133.827 1.0052 133.442 0.709725 132.984 0.492241C132.526 0.274758 132.003 0.166016 131.415 0.166016C130.986 0.166016 130.556 0.249384 130.123 0.416122C129.691 0.58286 129.297 0.836591 128.941 1.17732C128.585 1.51804 128.296 1.94576 128.075 2.46047C127.853 2.97518 127.742 3.58051 127.742 4.27646C127.742 4.92166 127.839 5.49799 128.031 6.00545C128.224 6.51292 128.485 6.94239 128.816 7.29399C129.143 7.64315 129.54 7.91927 129.982 8.10417C130.429 8.29266 130.906 8.3869 131.415 8.3869ZM131.415 7.60396C131.044 7.60396 130.703 7.52246 130.391 7.35935C130.078 7.19612 129.807 6.96777 129.579 6.67416C129.35 6.38067 129.172 6.03083 129.045 5.62486C128.917 5.21889 128.854 4.76942 128.854 4.27646C128.854 3.769 128.921 3.31052 129.056 2.90093C129.19 2.49122 129.373 2.14149 129.606 1.85151C129.838 1.56154 130.111 1.34043 130.423 1.18819C130.732 1.03685 131.071 0.958694 131.415 0.959831C131.764 0.959831 132.094 1.03595 132.407 1.18819C132.719 1.34043 132.991 1.56154 133.224 1.85151C133.456 2.14149 133.64 2.49133 133.774 2.90082C133.909 3.31052 133.976 3.769 133.976 4.27646C133.976 4.74042 133.914 5.17539 133.791 5.58136C133.667 5.98733 133.494 6.33893 133.273 6.63616C133.051 6.93338 132.782 7.16899 132.466 7.34298C132.151 7.51697 131.8 7.60396 131.415 7.60396ZM140.96 10.4965C141.337 10.2428 141.679 9.99804 141.984 9.76243C142.289 9.52693 142.547 9.2732 142.758 9.00124C142.968 8.72938 143.132 8.42128 143.248 8.07693C143.364 7.73269 143.423 7.32123 143.423 6.84277V0.329129H142.376V6.84277C142.376 7.27049 142.331 7.62933 142.24 7.91931C142.149 8.20929 142.022 8.46665 141.859 8.69138C141.695 8.91611 141.499 9.12459 141.27 9.3167C141.041 9.50881 140.792 9.71718 140.524 9.94191L140.96 10.4965ZM154.678 8.23466V7.45172H151.038V1.11207H154.515V0.329129H150.003V8.23466H154.678ZM154.144 4.47219V3.711H152.39C152.128 3.711 151.926 3.78536 151.785 3.93398C151.643 4.08248 151.532 4.26196 151.453 4.47219H154.144ZM164.757 8.36515C165.062 8.36515 165.374 8.32704 165.694 8.25092C166.014 8.17491 166.344 8.04618 166.686 7.86494L166.402 7.15812C166.097 7.31036 165.81 7.4191 165.542 7.48434C165.273 7.54959 165.011 7.58221 164.757 7.58221C164.385 7.58335 164.016 7.50355 163.678 7.34836C163.337 7.19261 163.035 6.96963 162.774 6.67965C162.512 6.38968 162.305 6.04357 162.152 5.64111C162 5.23877 161.924 4.79117 161.924 4.29821C161.924 3.74725 162 3.26329 162.153 2.84645C162.305 2.42971 162.512 2.0835 162.774 1.80802C163.035 1.53254 163.337 1.32593 163.678 1.18819C164.02 1.05045 164.379 0.98158 164.757 0.98158C165.011 0.98158 165.269 1.00333 165.531 1.04682C165.792 1.09032 166.083 1.16282 166.403 1.26431L166.686 0.557486C166.352 0.434245 166.023 0.34176 165.7 0.28014C165.376 0.218629 165.062 0.187764 164.757 0.187764C164.198 0.187764 163.678 0.287389 163.199 0.486749C162.719 0.686219 162.301 0.967081 161.945 1.32955C161.589 1.69203 161.312 2.12524 161.112 2.62896C160.912 3.1328 160.812 3.68925 160.812 4.29821C160.812 4.92891 160.912 5.49437 161.112 5.99458C161.312 6.49479 161.589 6.92064 161.945 7.27235C162.301 7.62384 162.719 7.89394 163.199 8.08242C163.678 8.27091 164.198 8.36515 164.757 8.36515ZM175.304 8.23466V1.11207H177.625V0.329129H171.948V1.11207H174.258V8.23466H175.304ZM194.143 8.3869C194.637 8.3869 195.106 8.2909 195.549 8.09879C195.992 7.90657 196.383 7.63109 196.72 7.27224C197.058 6.9135 197.325 6.48205 197.521 5.97832C197.718 5.47449 197.816 4.90716 197.816 4.27646C197.816 3.71825 197.736 3.18904 197.576 2.68883C197.416 2.18861 197.18 1.75189 196.868 1.37843C196.555 1.0052 196.17 0.709725 195.712 0.492241C195.255 0.274758 194.732 0.166016 194.143 0.166016C193.715 0.166016 193.284 0.249384 192.852 0.416122C192.42 0.58286 192.025 0.836591 191.669 1.17732C191.313 1.51804 191.025 1.94576 190.803 2.46047C190.581 2.97518 190.471 3.58051 190.471 4.27646C190.471 4.92166 190.567 5.49799 190.759 6.00545C190.952 6.51292 191.214 6.94239 191.544 7.29399C191.871 7.64315 192.269 7.91927 192.71 8.10417C193.157 8.29266 193.635 8.3869 194.143 8.3869ZM194.143 7.60396C193.773 7.60396 193.431 7.52246 193.119 7.35935C192.806 7.19612 192.536 6.96777 192.307 6.67416C192.078 6.38067 191.9 6.03083 191.773 5.62486C191.646 5.21889 191.582 4.76942 191.582 4.27646C191.582 3.769 191.649 3.31052 191.784 2.90093C191.918 2.49122 192.102 2.14149 192.334 1.85151C192.567 1.56154 192.839 1.34043 193.151 1.18819C193.46 1.03683 193.799 0.958678 194.143 0.959831C194.492 0.959831 194.822 1.03595 195.135 1.18819C195.447 1.34043 195.72 1.56154 195.952 1.85151C196.185 2.14149 196.368 2.49133 196.503 2.90082C196.637 3.31052 196.704 3.769 196.704 4.27646C196.704 4.74042 196.642 5.17539 196.519 5.58136C196.395 5.98733 196.223 6.33893 196.001 6.63616C195.78 6.93338 195.511 7.16899 195.195 7.34298C194.879 7.51697 194.528 7.60396 194.143 7.60396ZM205.323 8.23466V1.91676L205.301 1.54704L205.453 1.91676L209.42 8.23466H210.346V0.329129H209.431V6.44042L209.453 6.82102L209.322 6.46217L205.475 0.329129H204.44V8.23466H205.323Z" fill="black"/>
<defs>
<linearGradient id="paint0_linear_3316_281" x1="283.248" y1="298.337" x2="627.886" y2="801.564" gradientUnits="userSpaceOnUse">
<stop stop-color="#1A71CD"/>
<stop offset="0.42668" stop-color="#1666C1"/>
<stop offset="1" stop-color="#06388D"/>
</linearGradient>
<linearGradient id="paint1_linear_3316_281" x1="0" y1="245.927" x2="2226.14" y2="245.927" gradientUnits="userSpaceOnUse">
<stop stop-color="#CC0000"/>
<stop offset="1" stop-color="#400000"/>
</linearGradient>
<linearGradient id="paint2_linear_3316_281" x1="20.584" y1="245.926" x2="2246.73" y2="245.926" gradientUnits="userSpaceOnUse">
<stop stop-color="#CC0000"/>
<stop offset="1" stop-color="#400000"/>
</linearGradient>
</defs>
</svg>
